<mxfile host="app.diagrams.net" agent="Mozilla/5.0 (Windows NT 10.0; Win64; x64) AppleWebKit/537.36 (KHTML, like Gecko) Chrome/137.0.0.0 Safari/537.36" version="27.1.3">
  <diagram name="Page-1" id="PnO2lWLsIGauyi4xG7BS">
    <mxGraphModel dx="1307" dy="1716" grid="1" gridSize="10" guides="1" tooltips="1" connect="1" arrows="1" fold="1" page="1" pageScale="1" pageWidth="827" pageHeight="1169" math="0" shadow="0">
      <root>
        <mxCell id="0" />
        <mxCell id="1" parent="0" />
        <mxCell id="mWiq-TlII9zcLs66N9Nr-1" value="Registration" style="swimlane;fontStyle=1;align=center;verticalAlign=top;childLayout=stackLayout;horizontal=1;startSize=26;horizontalStack=0;resizeParent=1;resizeParentMax=0;resizeLast=0;collapsible=1;marginBottom=0;whiteSpace=wrap;html=1;" vertex="1" parent="1">
          <mxGeometry x="150" y="80" width="170" height="140" as="geometry" />
        </mxCell>
        <mxCell id="mWiq-TlII9zcLs66N9Nr-2" value="&lt;div&gt;&lt;span style=&quot;background-color: transparent; color: light-dark(rgb(0, 0, 0), rgb(255, 255, 255));&quot;&gt;- name: string&lt;/span&gt;&lt;/div&gt;&lt;div&gt;- Job_title: string&lt;/div&gt;&lt;div&gt;- e_mail: string&lt;/div&gt;&lt;div&gt;- address: string&lt;/div&gt;&lt;div&gt;- cnic_number: long double&lt;/div&gt;&lt;div&gt;- cell_number: long double&lt;/div&gt;" style="text;strokeColor=none;fillColor=none;align=left;verticalAlign=top;spacingLeft=4;spacingRight=4;overflow=hidden;rotatable=0;points=[[0,0.5],[1,0.5]];portConstraint=eastwest;whiteSpace=wrap;html=1;" vertex="1" parent="mWiq-TlII9zcLs66N9Nr-1">
          <mxGeometry y="26" width="170" height="114" as="geometry" />
        </mxCell>
        <mxCell id="mWiq-TlII9zcLs66N9Nr-10" value="Payment" style="swimlane;fontStyle=1;align=center;verticalAlign=top;childLayout=stackLayout;horizontal=1;startSize=26;horizontalStack=0;resizeParent=1;resizeParentMax=0;resizeLast=0;collapsible=1;marginBottom=0;whiteSpace=wrap;html=1;" vertex="1" parent="1">
          <mxGeometry x="420" y="80" width="160" height="140" as="geometry" />
        </mxCell>
        <mxCell id="mWiq-TlII9zcLs66N9Nr-12" value="" style="line;strokeWidth=1;fillColor=none;align=left;verticalAlign=middle;spacingTop=-1;spacingLeft=3;spacingRight=3;rotatable=0;labelPosition=right;points=[];portConstraint=eastwest;strokeColor=inherit;" vertex="1" parent="mWiq-TlII9zcLs66N9Nr-10">
          <mxGeometry y="26" width="160" height="8" as="geometry" />
        </mxCell>
        <mxCell id="mWiq-TlII9zcLs66N9Nr-13" value="&lt;div&gt;&lt;span style=&quot;background-color: transparent; color: light-dark(rgb(0, 0, 0), rgb(255, 255, 255));&quot;&gt;&lt;br&gt;&lt;/span&gt;&lt;/div&gt;&lt;div&gt;&lt;span style=&quot;background-color: transparent; color: light-dark(rgb(0, 0, 0), rgb(255, 255, 255));&quot;&gt;- payment_method: string&lt;/span&gt;&lt;/div&gt;&lt;div&gt;- amount: double&lt;/div&gt;&lt;div&gt;- payment_pin: int&lt;/div&gt;&lt;div&gt;&lt;br&gt;&lt;/div&gt;" style="text;strokeColor=none;fillColor=none;align=left;verticalAlign=top;spacingLeft=4;spacingRight=4;overflow=hidden;rotatable=0;points=[[0,0.5],[1,0.5]];portConstraint=eastwest;whiteSpace=wrap;html=1;" vertex="1" parent="mWiq-TlII9zcLs66N9Nr-10">
          <mxGeometry y="34" width="160" height="106" as="geometry" />
        </mxCell>
        <mxCell id="mWiq-TlII9zcLs66N9Nr-14" value="Membership Type" style="swimlane;fontStyle=1;align=center;verticalAlign=top;childLayout=stackLayout;horizontal=1;startSize=26;horizontalStack=0;resizeParent=1;resizeParentMax=0;resizeLast=0;collapsible=1;marginBottom=0;whiteSpace=wrap;html=1;" vertex="1" parent="1">
          <mxGeometry x="667" y="80" width="160" height="120" as="geometry" />
        </mxCell>
        <mxCell id="mWiq-TlII9zcLs66N9Nr-15" value="&lt;br&gt;&lt;div&gt;&amp;nbsp;&lt;/div&gt;&lt;div&gt;&lt;span style=&quot;background-color: transparent; color: light-dark(rgb(0, 0, 0), rgb(255, 255, 255));&quot;&gt;- plan: string&lt;/span&gt;&lt;/div&gt;&lt;div&gt;&lt;br&gt;&lt;/div&gt;" style="text;strokeColor=none;fillColor=none;align=left;verticalAlign=top;spacingLeft=4;spacingRight=4;overflow=hidden;rotatable=0;points=[[0,0.5],[1,0.5]];portConstraint=eastwest;whiteSpace=wrap;html=1;" vertex="1" parent="mWiq-TlII9zcLs66N9Nr-14">
          <mxGeometry y="26" width="160" height="94" as="geometry" />
        </mxCell>
        <mxCell id="mWiq-TlII9zcLs66N9Nr-24" value="System" style="swimlane;fontStyle=1;align=center;verticalAlign=top;childLayout=stackLayout;horizontal=1;startSize=26;horizontalStack=0;resizeParent=1;resizeParentMax=0;resizeLast=0;collapsible=1;marginBottom=0;whiteSpace=wrap;html=1;" vertex="1" parent="1">
          <mxGeometry x="390" y="-420" width="240" height="296" as="geometry" />
        </mxCell>
        <mxCell id="mWiq-TlII9zcLs66N9Nr-25" value="&lt;div&gt;- members: Registration[]&lt;/div&gt;&lt;div&gt;- payments: Payment[]&lt;/div&gt;&lt;div&gt;- memberships: Membership_type[]&lt;/div&gt;&lt;div&gt;- num_members: int&lt;/div&gt;" style="text;strokeColor=none;fillColor=none;align=left;verticalAlign=top;spacingLeft=4;spacingRight=4;overflow=hidden;rotatable=0;points=[[0,0.5],[1,0.5]];portConstraint=eastwest;whiteSpace=wrap;html=1;" vertex="1" parent="mWiq-TlII9zcLs66N9Nr-24">
          <mxGeometry y="26" width="240" height="94" as="geometry" />
        </mxCell>
        <mxCell id="mWiq-TlII9zcLs66N9Nr-26" value="" style="line;strokeWidth=1;fillColor=none;align=left;verticalAlign=middle;spacingTop=-1;spacingLeft=3;spacingRight=3;rotatable=0;labelPosition=right;points=[];portConstraint=eastwest;strokeColor=inherit;" vertex="1" parent="mWiq-TlII9zcLs66N9Nr-24">
          <mxGeometry y="120" width="240" height="28" as="geometry" />
        </mxCell>
        <mxCell id="mWiq-TlII9zcLs66N9Nr-27" value="&lt;div&gt;+ add_member()&lt;/div&gt;&lt;div&gt;+ display_members()&lt;/div&gt;&lt;div&gt;+ search_member_by_cnic(cnic)&lt;/div&gt;&lt;div&gt;+ search_member_by_name(name)&lt;/div&gt;&lt;div&gt;+ sort_members_by_name()&lt;/div&gt;&lt;div&gt;+ sort_members_by_payment_amount()&lt;/div&gt;" style="text;strokeColor=none;fillColor=none;align=left;verticalAlign=top;spacingLeft=4;spacingRight=4;overflow=hidden;rotatable=0;points=[[0,0.5],[1,0.5]];portConstraint=eastwest;whiteSpace=wrap;html=1;" vertex="1" parent="mWiq-TlII9zcLs66N9Nr-24">
          <mxGeometry y="148" width="240" height="148" as="geometry" />
        </mxCell>
        <mxCell id="mWiq-TlII9zcLs66N9Nr-28" value="" style="endArrow=open;endFill=1;endSize=12;html=1;rounded=0;exitX=0.554;exitY=1.027;exitDx=0;exitDy=0;exitPerimeter=0;entryX=0.453;entryY=0;entryDx=0;entryDy=0;entryPerimeter=0;" edge="1" parent="1" source="mWiq-TlII9zcLs66N9Nr-27" target="mWiq-TlII9zcLs66N9Nr-1">
          <mxGeometry width="160" relative="1" as="geometry">
            <mxPoint x="360" y="-70" as="sourcePoint" />
            <mxPoint x="520" y="-70" as="targetPoint" />
          </mxGeometry>
        </mxCell>
        <mxCell id="mWiq-TlII9zcLs66N9Nr-29" value="" style="endArrow=open;endFill=1;endSize=12;html=1;rounded=0;entryX=0.369;entryY=-0.025;entryDx=0;entryDy=0;entryPerimeter=0;" edge="1" parent="1" target="mWiq-TlII9zcLs66N9Nr-14">
          <mxGeometry width="160" relative="1" as="geometry">
            <mxPoint x="530" y="-120" as="sourcePoint" />
            <mxPoint x="560" y="-10" as="targetPoint" />
          </mxGeometry>
        </mxCell>
        <mxCell id="mWiq-TlII9zcLs66N9Nr-30" value="" style="endArrow=open;endFill=1;endSize=12;html=1;rounded=0;entryX=1.031;entryY=0.217;entryDx=0;entryDy=0;entryPerimeter=0;" edge="1" parent="1" target="mWiq-TlII9zcLs66N9Nr-13">
          <mxGeometry width="160" relative="1" as="geometry">
            <mxPoint x="660" y="140" as="sourcePoint" />
            <mxPoint x="690" y="70" as="targetPoint" />
          </mxGeometry>
        </mxCell>
      </root>
    </mxGraphModel>
  </diagram>
</mxfile>
